<svg width="24" height="25" viewBox="0 0 24 25" fill="none" xmlns="http://www.w3.org/2000/svg">
<path d="M0.372177 23.8677L0.376585 23.8721C0.493478 23.9899 0.632494 24.0834 0.785639 24.1472C0.938785 24.2111 1.10304 24.244 1.26896 24.2441C1.40857 24.244 1.54722 24.221 1.67938 24.176L8.87462 21.7352L22.6818 7.92799C23.5259 7.08384 24.0001 5.93897 24 4.74522C23.9999 3.55147 23.5257 2.40664 22.6815 1.56257C21.8374 0.718497 20.6925 0.244333 19.4988 0.244385C18.305 0.244437 17.1602 0.718702 16.3161 1.56285L2.50892 15.37L0.0683174 22.5651C-0.00856171 22.7888 -0.020833 23.0297 0.0329105 23.2601C0.086654 23.4905 0.204237 23.7011 0.372177 23.8677ZM17.4627 2.70932C18.0034 2.17271 18.7348 1.87223 19.4966 1.8737C20.2584 1.87516 20.9886 2.17844 21.5273 2.71713C22.066 3.25582 22.3692 3.98602 22.3707 4.74783C22.3721 5.50964 22.0716 6.24098 21.535 6.78171L19.7193 8.59737L15.6469 4.52498L17.4627 2.70932ZM3.92308 16.2489L14.5005 5.67146L18.5728 9.74385L7.99542 20.3212L1.8324 22.4119L3.92308 16.2489Z" fill="#666666"/>
</svg>
