<svg width="24" height="25" viewBox="0 0 24 25" fill="none" xmlns="http://www.w3.org/2000/svg">
<path d="M23.1799 19.4299L19.1258 15.3757L16.0074 14.0874C17.0457 12.6108 17.602 10.8492 17.6 9.04412C17.6 4.19178 13.6523 0.244141 8.79998 0.244141C3.94764 0.244141 0 4.19178 0 9.04412C0 13.8965 3.94764 17.8441 8.79998 17.8441C10.6208 17.8462 12.3969 17.2803 13.8809 16.2253L15.1659 19.3352L19.22 23.3896C19.48 23.6497 19.7886 23.8559 20.1283 23.9966C20.4681 24.1374 20.8322 24.2098 21.1999 24.2098C21.5676 24.2098 21.9317 24.1374 22.2714 23.9967C22.6111 23.856 22.9198 23.6498 23.1798 23.3898C23.4398 23.1298 23.6461 22.8211 23.7868 22.4814C23.9276 22.1417 24 21.7776 24 21.4099C24 21.0421 23.9276 20.678 23.7869 20.3383C23.6462 19.9986 23.4399 19.6899 23.1799 19.4299ZM1.6 9.04412C1.6 5.07413 4.82999 1.84414 8.79998 1.84414C12.77 1.84414 16 5.07413 16 9.04412C16 13.0141 12.77 16.2441 8.79998 16.2441C4.82999 16.2441 1.6 13.0141 1.6 9.04412ZM22.0485 22.2583C21.8233 22.483 21.5181 22.6092 21.2 22.6092C20.8818 22.6092 20.5766 22.483 20.3514 22.2583L16.5228 18.4297L15.3281 15.538L18.22 16.7327L22.0486 20.5612C22.2733 20.7865 22.3995 21.0916 22.3994 21.4098C22.3994 21.7279 22.2732 22.0331 22.0485 22.2583Z" fill="#666666"/>
</svg>
