<svg width="100%" height="100%" viewBox="0 0 24 21" fill="none" xmlns="http://www.w3.org/2000/svg">
<path d="M23.9543 3.27567C23.0715 3.66267 22.1265 3.92892 21.1305 4.04967C22.1468 3.43992 22.9238 2.47542 23.2943 1.32642C22.341 1.88142 21.2865 2.28342 20.1653 2.51067C19.2713 1.55367 17.9933 0.951416 16.575 0.951416C13.8563 0.951416 11.6527 3.15417 11.6527 5.86917C11.6527 6.25992 11.7 6.63492 11.7817 6.99042C7.692 6.79917 4.0665 4.83417 1.64175 1.86567C1.21575 2.58867 0.9735 3.42867 0.9735 4.34292C0.9735 6.05367 1.84425 7.55367 3.1605 8.43567C2.35575 8.41242 1.59825 8.18967 0.9345 7.82292V7.88217C0.9345 10.2679 2.6295 12.2569 4.8795 12.7099C4.46925 12.8187 4.03125 12.8817 3.5865 12.8817C3.27075 12.8817 2.96925 12.8509 2.6685 12.7954C3.3015 14.7484 5.1135 16.1704 7.2735 16.2132C5.59425 17.5294 3.46575 18.3139 1.17225 18.3139C0.7815 18.3139 0.3915 18.2952 0 18.2479C2.18775 19.6429 4.77 20.4589 7.55925 20.4589C16.6095 20.4589 21.555 12.9627 21.555 6.47067C21.555 6.26367 21.555 6.05292 21.5392 5.84142C22.5045 5.15367 23.34 4.28217 24 3.29442L23.9543 3.27567Z" fill="#333333"/>
</svg>
